<svg width="24" height="24" viewBox="0 0 24 24" fill="none" xmlns="http://www.w3.org/2000/svg">
<g clip-path="url(#clip0_53_212)">
<g clip-path="url(#clip1_53_212)">
<mask id="mask0_53_212" style="mask-type:luminance" maskUnits="userSpaceOnUse" x="0" y="0" width="24" height="24">
<path d="M24 0H0V24H24V0Z" fill="white"/>
</mask>
<g mask="url(#mask0_53_212)">
<path d="M12 2.16205C15.2 2.16205 15.583 2.17405 16.849 2.23205C17.6098 2.24108 18.3635 2.38078 19.077 2.64505C19.5943 2.84431 20.0642 3.14968 20.4563 3.5415C20.8485 3.93332 21.1543 4.40291 21.354 4.92005C21.6183 5.63357 21.758 6.38721 21.767 7.14805C21.825 8.41305 21.837 8.79305 21.837 11.997C21.837 15.201 21.825 15.58 21.767 16.846C21.758 17.6069 21.6183 18.3605 21.354 19.074C21.1545 19.5916 20.8488 20.0615 20.4567 20.4537C20.0645 20.8459 19.5945 21.1516 19.077 21.351C18.3635 21.6153 17.6098 21.755 16.849 21.764C15.584 21.822 15.204 21.834 12 21.834C8.796 21.834 8.416 21.822 7.151 21.764C6.38933 21.7563 5.63466 21.6176 4.92 21.354C4.40249 21.1546 3.93251 20.8489 3.54034 20.4567C3.14816 20.0645 2.84248 19.5946 2.643 19.077C2.37873 18.3635 2.23903 17.6099 2.23 16.849C2.172 15.584 2.16 15.204 2.16 12C2.16 8.79605 2.172 8.41705 2.23 7.15105C2.23933 6.38908 2.37971 5.6344 2.645 4.92005C2.8445 4.4031 3.14997 3.93363 3.54178 3.54183C3.93359 3.15002 4.40306 2.84454 4.92 2.64505C5.63353 2.38078 6.38716 2.24108 7.148 2.23205C8.414 2.17405 8.793 2.16205 11.997 2.16205M11.997 4.673e-05C8.738 4.673e-05 8.329 0.0140468 7.049 0.0720468C6.05342 0.0918951 5.06844 0.280574 4.136 0.630047C3.33965 0.938862 2.61651 1.41046 2.01281 2.01467C1.40911 2.61889 0.938134 3.34244 0.63 4.13905C0.280528 5.07148 0.0918483 6.05647 0.072 7.05205C0.014 8.33205 0 8.74105 0 12C0 15.259 0.014 15.668 0.072 16.948C0.0919611 17.9433 0.280639 18.9279 0.63 19.86C0.938405 20.6573 1.40992 21.3813 2.01435 21.9857C2.61878 22.5901 3.34279 23.0616 4.14 23.37C5.07244 23.7195 6.05742 23.9082 7.053 23.928C8.333 23.987 8.742 24 12.001 24C15.26 24 15.669 23.986 16.949 23.928C17.9446 23.9082 18.9296 23.7195 19.862 23.37C20.6592 23.0616 21.3832 22.5901 21.9876 21.9857C22.5921 21.3813 23.0636 20.6573 23.372 19.86C23.7215 18.9276 23.9102 17.9426 23.93 16.947C23.989 15.667 24.002 15.258 24.002 11.999C24.002 8.74005 23.988 8.33105 23.93 7.05105C23.9102 6.05547 23.7215 5.07048 23.372 4.13805C23.0636 3.34083 22.5921 2.61682 21.9876 2.0124C21.3832 1.40797 20.6592 0.936452 19.862 0.628047C18.9296 0.278575 17.9446 0.0898952 16.949 0.0700469C15.669 0.0120469 15.26 -0.00195312 12.001 -0.00195312L11.997 4.673e-05Z" fill="#302210"/>
<path d="M11.9979 5.83789C10.7792 5.83789 9.58785 6.19928 8.57451 6.87637C7.56118 7.55346 6.77138 8.51584 6.305 9.6418C5.83861 10.7678 5.71658 12.0067 5.95434 13.202C6.1921 14.3974 6.77898 15.4953 7.64075 16.3571C8.50252 17.2189 9.60048 17.8057 10.7958 18.0435C11.9911 18.2812 13.2301 18.1592 14.356 17.6928C15.482 17.2265 16.4444 16.4366 17.1215 15.4233C17.7986 14.41 18.1599 13.2186 18.1599 11.9999C18.1599 10.3656 17.5107 8.7983 16.3551 7.6427C15.1995 6.4871 13.6322 5.83789 11.9979 5.83789ZM11.9979 15.9989C11.2068 15.9989 10.4334 15.7643 9.77565 15.3248C9.11786 14.8852 8.60517 14.2605 8.30242 13.5296C7.99967 12.7987 7.92046 11.9945 8.0748 11.2185C8.22914 10.4426 8.6101 9.72988 9.16951 9.17047C9.72892 8.61106 10.4417 8.23009 11.2176 8.07574C11.9935 7.9214 12.7978 8.00062 13.5287 8.30338C14.2596 8.60613 14.8843 9.11881 15.3238 9.77661C15.7634 10.4344 15.9979 11.2078 15.9979 11.9989C15.9977 13.0596 15.5761 14.0767 14.826 14.8267C14.0759 15.5766 13.0586 15.9989 11.9979 15.9989Z" fill="#302210"/>
<path d="M18.4051 7.0343C19.2004 7.0343 19.8451 6.38959 19.8451 5.5943C19.8451 4.79901 19.2004 4.1543 18.4051 4.1543C17.6098 4.1543 16.9651 4.79901 16.9651 5.5943C16.9651 6.38959 17.6098 7.0343 18.4051 7.0343Z" fill="#302210"/>
</g>
</g>
</g>
<defs>
<clipPath id="clip0_53_212">
<rect width="24" height="24" fill="white"/>
</clipPath>
<clipPath id="clip1_53_212">
<rect width="24" height="24" fill="white"/>
</clipPath>
</defs>
</svg>
