<svg width="99" height="14" viewBox="0 0 99 14" fill="none" xmlns="http://www.w3.org/2000/svg">
<path d="M7.39203 5.3757H9.11403V10.3877H7.61603V9.8137C6.91603 10.2897 6.0387 10.5277 4.98403 10.5277C4.0787 10.5277 3.24803 10.3317 2.49203 9.9397C1.73603 9.5477 1.12937 8.97836 0.672033 8.2317C0.224033 7.48503 3.32519e-05 6.5937 3.32519e-05 5.55769C3.32519e-05 4.5777 0.2287 3.70036 0.686033 2.92569C1.14337 2.14169 1.77337 1.53503 2.57603 1.10569C3.38803 0.667028 4.29803 0.447695 5.30603 0.447695C6.12737 0.447695 6.87403 0.583028 7.54603 0.853695C8.21803 1.12436 8.7827 1.52103 9.24003 2.0437L8.09203 3.16369C7.34537 2.41703 6.4447 2.0437 5.39003 2.0437C4.69937 2.0437 4.08337 2.19303 3.54203 2.4917C3.01003 2.78103 2.59003 3.19169 2.28203 3.7237C1.98337 4.25569 1.83403 4.86236 1.83403 5.5437C1.83403 6.26236 1.98337 6.88303 2.28203 7.4057C2.59003 7.91903 2.99603 8.31103 3.50003 8.5817C4.00403 8.84303 4.5547 8.9737 5.15203 8.9737C5.57203 8.9737 5.97337 8.90836 6.35603 8.7777C6.74803 8.64703 7.09337 8.4557 7.39203 8.2037V5.3757ZM14.7065 10.4857C13.9505 10.4857 13.2692 10.3224 12.6625 9.9957C12.0558 9.66903 11.5798 9.21636 11.2345 8.6377C10.8985 8.0497 10.7305 7.38703 10.7305 6.6497C10.7305 5.91236 10.8985 5.25436 11.2345 4.6757C11.5798 4.09703 12.0558 3.64436 12.6625 3.3177C13.2692 2.99103 13.9505 2.8277 14.7065 2.8277C15.4718 2.8277 16.1578 2.99103 16.7645 3.3177C17.3712 3.64436 17.8425 4.09703 18.1785 4.6757C18.5238 5.25436 18.6965 5.91236 18.6965 6.6497C18.6965 7.38703 18.5238 8.0497 18.1785 8.6377C17.8425 9.21636 17.3712 9.66903 16.7645 9.9957C16.1578 10.3224 15.4718 10.4857 14.7065 10.4857ZM14.7065 8.9877C15.3505 8.9877 15.8825 8.77303 16.3025 8.3437C16.7225 7.91436 16.9325 7.3497 16.9325 6.6497C16.9325 5.9497 16.7225 5.38503 16.3025 4.9557C15.8825 4.52636 15.3505 4.3117 14.7065 4.3117C14.0625 4.3117 13.5305 4.52636 13.1105 4.9557C12.6998 5.38503 12.4945 5.9497 12.4945 6.6497C12.4945 7.3497 12.6998 7.91436 13.1105 8.3437C13.5305 8.77303 14.0625 8.9877 14.7065 8.9877ZM23.7299 10.4857C22.9739 10.4857 22.2926 10.3224 21.6859 9.9957C21.0793 9.66903 20.6033 9.21636 20.2579 8.6377C19.9219 8.0497 19.7539 7.38703 19.7539 6.6497C19.7539 5.91236 19.9219 5.25436 20.2579 4.6757C20.6033 4.09703 21.0793 3.64436 21.6859 3.3177C22.2926 2.99103 22.9739 2.8277 23.7299 2.8277C24.4953 2.8277 25.1813 2.99103 25.7879 3.3177C26.3946 3.64436 26.8659 4.09703 27.2019 4.6757C27.5473 5.25436 27.7199 5.91236 27.7199 6.6497C27.7199 7.38703 27.5473 8.0497 27.2019 8.6377C26.8659 9.21636 26.3946 9.66903 25.7879 9.9957C25.1813 10.3224 24.4953 10.4857 23.7299 10.4857ZM23.7299 8.9877C24.3739 8.9877 24.9059 8.77303 25.3259 8.3437C25.7459 7.91436 25.9559 7.3497 25.9559 6.6497C25.9559 5.9497 25.7459 5.38503 25.3259 4.9557C24.9059 4.52636 24.3739 4.3117 23.7299 4.3117C23.0859 4.3117 22.5539 4.52636 22.1339 4.9557C21.7233 5.38503 21.5179 5.9497 21.5179 6.6497C21.5179 7.3497 21.7233 7.91436 22.1339 8.3437C22.5539 8.77303 23.0859 8.9877 23.7299 8.9877ZM36.8134 2.91169V9.2537C36.8134 11.8857 35.4694 13.2017 32.7814 13.2017C32.0627 13.2017 31.3814 13.1084 30.7374 12.9217C30.0934 12.7444 29.5614 12.483 29.1414 12.1377L29.9254 10.8217C30.252 11.0924 30.6627 11.307 31.1574 11.4657C31.6614 11.6337 32.17 11.7177 32.6834 11.7177C33.5047 11.7177 34.1067 11.531 34.4894 11.1577C34.872 10.7844 35.0634 10.215 35.0634 9.4497V9.0577C34.7647 9.38436 34.4007 9.6317 33.9714 9.7997C33.542 9.9677 33.0707 10.0517 32.5574 10.0517C31.848 10.0517 31.204 9.90236 30.6254 9.6037C30.056 9.2957 29.6034 8.86636 29.2674 8.3157C28.9407 7.76503 28.7774 7.13503 28.7774 6.4257C28.7774 5.71636 28.9407 5.09103 29.2674 4.54969C29.6034 3.99903 30.056 3.57436 30.6254 3.2757C31.204 2.97703 31.848 2.8277 32.5574 2.8277C33.0987 2.8277 33.5887 2.91636 34.0274 3.09369C34.4754 3.27103 34.8487 3.54169 35.1474 3.90569V2.91169H36.8134ZM32.8234 8.5677C33.486 8.5677 34.0274 8.3717 34.4474 7.9797C34.8767 7.57836 35.0914 7.06036 35.0914 6.4257C35.0914 5.80036 34.8767 5.29169 34.4474 4.8997C34.0274 4.5077 33.486 4.3117 32.8234 4.3117C32.1514 4.3117 31.6007 4.5077 31.1714 4.8997C30.7514 5.29169 30.5414 5.80036 30.5414 6.4257C30.5414 7.06036 30.7514 7.57836 31.1714 7.9797C31.6007 8.3717 32.1514 8.5677 32.8234 8.5677ZM41.5781 10.4857C40.8034 10.4857 40.1967 10.2757 39.7581 9.8557C39.3287 9.42636 39.1141 8.82436 39.1141 8.0497V-0.000305295H40.8641V7.9237C40.8641 8.67036 41.2141 9.0437 41.9141 9.0437C42.1474 9.0437 42.3574 8.99703 42.5441 8.9037L42.6281 10.3037C42.3014 10.425 41.9514 10.4857 41.5781 10.4857ZM47.2365 9.0017C48.0485 9.0017 48.7251 8.73103 49.2665 8.1897L50.1905 9.2677C49.8638 9.66903 49.4438 9.97236 48.9305 10.1777C48.4171 10.383 47.8385 10.4857 47.1945 10.4857C46.3731 10.4857 45.6498 10.3224 45.0245 9.9957C44.3991 9.66903 43.9138 9.21636 43.5685 8.6377C43.2325 8.0497 43.0645 7.38703 43.0645 6.6497C43.0645 5.92169 43.2278 5.26836 43.5545 4.6897C43.8905 4.1017 44.3478 3.64436 44.9265 3.3177C45.5145 2.99103 46.1771 2.8277 46.9145 2.8277C47.6145 2.8277 48.2491 2.98169 48.8185 3.28969C49.3971 3.58836 49.8545 4.02236 50.1905 4.59169C50.5265 5.1517 50.6945 5.8097 50.6945 6.5657L44.9685 7.6857C45.1458 8.11503 45.4305 8.4417 45.8225 8.6657C46.2145 8.8897 46.6858 9.0017 47.2365 9.0017ZM46.9145 4.22769C46.2705 4.22769 45.7478 4.4377 45.3465 4.8577C44.9545 5.2777 44.7585 5.84236 44.7585 6.5517V6.5657L48.9865 5.75369C48.8651 5.29636 48.6178 4.92769 48.2445 4.64769C47.8805 4.36769 47.4371 4.22769 46.9145 4.22769ZM67.3609 0.447695C68.5089 0.447695 69.4049 0.783695 70.0489 1.4557C70.6929 2.11836 71.0149 3.07503 71.0149 4.32569V10.3877H69.1949V4.39569C69.1949 3.62103 68.9896 3.03769 68.5789 2.64569C68.1776 2.24436 67.6503 2.0437 66.9969 2.0437C66.2689 2.0437 65.6856 2.24903 65.2469 2.65969C64.8176 3.07036 64.6029 3.70036 64.6029 4.54969V10.3877H62.7829V4.39569C62.7829 3.61169 62.5916 3.02369 62.2089 2.6317C61.8356 2.2397 61.3223 2.0437 60.6689 2.0437C59.9316 2.0437 59.3389 2.2537 58.8909 2.6737C58.4523 3.08436 58.2329 3.70969 58.2329 4.54969V10.3877H56.4129V0.587695H58.1769V1.87569C58.4756 1.41836 58.8816 1.06836 59.3949 0.825695C59.9083 0.573695 60.5009 0.447695 61.1729 0.447695C61.8636 0.447695 62.4656 0.578361 62.9789 0.839695C63.4923 1.10103 63.8796 1.46969 64.1409 1.94569C64.4676 1.46969 64.9109 1.10103 65.4709 0.839695C66.0403 0.578361 66.6703 0.447695 67.3609 0.447695ZM80.6975 2.91169V10.3877H79.0315V9.4217C78.7421 9.77636 78.3828 10.0424 77.9535 10.2197C77.5335 10.397 77.0668 10.4857 76.5535 10.4857C75.8255 10.4857 75.1721 10.327 74.5935 10.0097C74.0241 9.69236 73.5761 9.24436 73.2495 8.6657C72.9321 8.08703 72.7735 7.41503 72.7735 6.6497C72.7735 5.88436 72.9321 5.21703 73.2495 4.64769C73.5761 4.06903 74.0241 3.62103 74.5935 3.30369C75.1721 2.98636 75.8255 2.8277 76.5535 2.8277C77.0388 2.8277 77.4821 2.9117 77.8835 3.0797C78.2941 3.2477 78.6488 3.49503 78.9475 3.8217V2.91169H80.6975ZM76.7495 8.9877C77.3935 8.9877 77.9255 8.77303 78.3455 8.3437C78.7655 7.91436 78.9755 7.3497 78.9755 6.6497C78.9755 5.9497 78.7655 5.38503 78.3455 4.9557C77.9255 4.52636 77.3935 4.3117 76.7495 4.3117C76.1055 4.3117 75.5735 4.52636 75.1535 4.9557C74.7428 5.38503 74.5375 5.9497 74.5375 6.6497C74.5375 7.3497 74.7428 7.91436 75.1535 8.3437C75.5735 8.77303 76.1055 8.9877 76.7495 8.9877ZM87.1311 2.8277C87.8591 2.8277 88.5078 2.98636 89.0771 3.30369C89.6558 3.62103 90.1084 4.06903 90.4351 4.64769C90.7618 5.22636 90.9251 5.8937 90.9251 6.6497C90.9251 7.4057 90.7618 8.0777 90.4351 8.6657C90.1084 9.24436 89.6558 9.69236 89.0771 10.0097C88.5078 10.327 87.8591 10.4857 87.1311 10.4857C86.1231 10.4857 85.3251 10.1497 84.7371 9.4777V13.1037H82.9871V2.91169H84.6531V3.8917C84.9424 3.53703 85.2971 3.27103 85.7171 3.09369C86.1464 2.91636 86.6178 2.8277 87.1311 2.8277ZM86.9351 8.9877C87.5791 8.9877 88.1064 8.77303 88.5171 8.3437C88.9371 7.91436 89.1471 7.3497 89.1471 6.6497C89.1471 5.9497 88.9371 5.38503 88.5171 4.9557C88.1064 4.52636 87.5791 4.3117 86.9351 4.3117C86.5151 4.3117 86.1371 4.4097 85.8011 4.6057C85.4651 4.79236 85.1991 5.06303 85.0031 5.4177C84.8071 5.77236 84.7091 6.18303 84.7091 6.6497C84.7091 7.11636 84.8071 7.52703 85.0031 7.8817C85.1991 8.23636 85.4651 8.5117 85.8011 8.7077C86.1371 8.89436 86.5151 8.9877 86.9351 8.9877ZM94.8948 10.4857C94.2881 10.4857 93.6954 10.4064 93.1168 10.2477C92.5381 10.089 92.0761 9.88836 91.7308 9.6457L92.4028 8.3157C92.7388 8.5397 93.1401 8.7217 93.6068 8.8617C94.0828 8.99236 94.5494 9.0577 95.0068 9.0577C96.0521 9.0577 96.5748 8.78236 96.5748 8.2317C96.5748 7.97036 96.4394 7.78836 96.1688 7.6857C95.9074 7.58303 95.4828 7.48503 94.8948 7.3917C94.2788 7.29836 93.7748 7.19103 93.3828 7.0697C93.0001 6.94836 92.6641 6.73836 92.3748 6.4397C92.0948 6.1317 91.9548 5.70703 91.9548 5.16569C91.9548 4.45636 92.2488 3.89169 92.8368 3.4717C93.4341 3.04236 94.2368 2.8277 95.2448 2.8277C95.7581 2.8277 96.2714 2.88836 96.7848 3.0097C97.2981 3.12169 97.7181 3.27569 98.0448 3.4717L97.3728 4.8017C96.7381 4.42836 96.0241 4.2417 95.2308 4.2417C94.7174 4.2417 94.3254 4.32103 94.0548 4.4797C93.7934 4.62903 93.6628 4.8297 93.6628 5.0817C93.6628 5.3617 93.8028 5.56236 94.0828 5.68369C94.3721 5.7957 94.8154 5.90303 95.4128 6.00569C96.0101 6.09903 96.5001 6.20636 96.8828 6.3277C97.2654 6.44903 97.5921 6.65436 97.8628 6.9437C98.1428 7.23303 98.2828 7.6437 98.2828 8.1757C98.2828 8.8757 97.9794 9.4357 97.3728 9.8557C96.7661 10.2757 95.9401 10.4857 94.8948 10.4857Z" fill="#4D3F37"/>
</svg>
