<svg width="20" height="21" viewBox="0 0 20 21" fill="none" xmlns="http://www.w3.org/2000/svg">
<path d="M16 0H4C2.93913 0 1.92172 0.42303 1.17157 1.17603C0.421427 1.92903 0 2.95031 0 4.01521V16.0608C0 17.1257 0.421427 18.147 1.17157 18.9C1.92172 19.653 2.93913 20.076 4 20.076H16C17.0609 20.076 18.0783 19.653 18.8284 18.9C19.5786 18.147 20 17.1257 20 16.0608V4.01521C20 2.95031 19.5786 1.92903 18.8284 1.17603C18.0783 0.42303 17.0609 0 16 0ZM17.1 11.0418C16.8458 11.6168 16.5089 12.1512 16.1 12.6278C15.446 13.3724 14.7153 14.0454 13.92 14.6354C12.9993 15.3615 12.0393 16.0307 11.04 16.643C10.73 16.8338 10.41 17.0044 10.09 17.165C9.95043 17.2476 9.79197 17.2925 9.63 17.2955C9.59395 17.3023 9.5568 17.3004 9.52164 17.2898C9.48649 17.2793 9.45437 17.2605 9.42794 17.2349C9.40152 17.2094 9.38156 17.1779 9.36974 17.143C9.35792 17.1081 9.35458 17.0709 9.36 17.0345C9.35065 16.8975 9.35065 16.76 9.36 16.623C9.4263 16.3126 9.46314 15.9967 9.47 15.6794C9.47266 15.5848 9.44753 15.4916 9.39774 15.4112C9.34795 15.3309 9.2757 15.2671 9.19 15.2277C9.02326 15.1454 8.84422 15.0912 8.66 15.0671C7.6977 14.9277 6.76507 14.6292 5.9 14.1837C5.08494 13.7657 4.36088 13.189 3.77 12.4873C3.16549 11.7799 2.74923 10.9304 2.56 10.0179C2.56 9.80715 2.5 9.59635 2.48 9.37551C2.46 9.15468 2.48 8.96395 2.48 8.75316C2.51002 8.19816 2.63168 7.65202 2.84 7.13703C3.11118 6.44947 3.50419 5.8169 4 5.26996C4.70941 4.52472 5.56372 3.93366 6.51 3.53338C7.10634 3.29361 7.72654 3.11863 8.36 3.01141L9.12 2.91103H10.81C11.9558 3.00562 13.0712 3.32988 14.09 3.86464C14.8 4.23103 15.446 4.71185 16 5.29004C16.5813 5.89928 17.0157 6.63414 17.27 7.43817C17.38 7.7624 17.451 8.10068 17.48 8.44198V9.09445C17.4923 9.76328 17.3628 10.4271 17.1 11.0418Z" fill="#605B5B"/>
<path d="M12.2395 7.5092V10.752C12.2395 10.8624 12.2395 10.9026 12.0795 10.9026H11.5695C11.5461 10.9034 11.5228 10.8984 11.5019 10.8879C11.4809 10.8773 11.4629 10.8617 11.4495 10.8424L10.6995 9.8384L9.99952 8.88463V8.81435V10.762C9.99952 10.9026 9.99952 10.9327 9.82952 10.9327H9.36952C9.3366 10.9379 9.30291 10.9312 9.2745 10.9137C9.24609 10.8962 9.22482 10.8692 9.21452 10.8373C9.20776 10.8163 9.20605 10.7939 9.20952 10.7721V7.52928C9.20802 7.50912 9.21088 7.48887 9.21789 7.46992C9.2249 7.45097 9.2359 7.43376 9.25014 7.41947C9.26438 7.40517 9.28152 7.39413 9.3004 7.38709C9.31927 7.38005 9.33944 7.37719 9.35952 7.37869H9.90952C9.92795 7.38165 9.94553 7.38857 9.96106 7.39896C9.97659 7.40936 9.9897 7.42298 9.99952 7.43892L11.0995 9.03523L11.3895 9.42677V9.47697V7.52928C11.3895 7.39876 11.4395 7.34857 11.5695 7.34857H12.0195C12.1795 7.34857 12.2395 7.39876 12.2395 7.5092ZM13.5795 8.23206V8.65372C13.5795 8.73404 13.5795 8.73404 13.6495 8.73404H14.9995C15.1295 8.73404 15.1695 8.78424 15.1695 8.91475V9.37658C15.1729 9.39845 15.1712 9.42083 15.1643 9.44189C15.1575 9.46294 15.1458 9.48208 15.1302 9.49774C15.1146 9.5134 15.0955 9.52514 15.0746 9.53199C15.0536 9.53885 15.0313 9.54064 15.0095 9.53721H13.6495C13.5795 9.53721 13.5795 9.53721 13.5795 9.61753V10.0392C13.5795 10.1195 13.5795 10.1195 13.6495 10.1195H14.9995C15.1195 10.1195 15.1595 10.1195 15.1595 10.2902V10.752C15.1595 10.8725 15.1595 10.9126 14.9995 10.9126H12.9495C12.7695 10.9126 12.7795 10.9126 12.7795 10.752V7.52928C12.7795 7.4088 12.8295 7.35861 12.9495 7.35861H14.9495C15.0695 7.35861 15.1095 7.4088 15.1095 7.52928V8.03126C15.1095 8.1417 15.1095 8.1919 14.9595 8.1919H13.6495C13.5795 8.16178 13.5795 8.16178 13.5795 8.23206ZM7.32952 10.2601V10.7821C7.32952 10.8725 7.27952 10.9126 7.18952 10.9126H5.11952C4.99952 10.9126 4.95952 10.9126 4.95952 10.752V7.52928C4.95952 7.39876 4.95952 7.35861 5.12952 7.35861H5.58952C5.70952 7.35861 5.74952 7.4088 5.74952 7.51924V10.0894H7.21952C7.24861 10.0925 7.27578 10.1055 7.29665 10.1261C7.31752 10.1466 7.33086 10.1737 7.33452 10.2028C7.33844 10.222 7.3367 10.2419 7.32952 10.2601ZM8.60952 7.51924V10.752C8.60952 10.8725 8.60952 10.9126 8.43952 10.9126C8.27952 10.9227 8.11952 10.9227 7.95952 10.9126C7.93773 10.9161 7.91544 10.9143 7.89446 10.9074C7.87349 10.9006 7.85443 10.8888 7.83883 10.8732C7.82324 10.8575 7.81155 10.8384 7.80471 10.8173C7.79788 10.7963 7.7961 10.7739 7.79952 10.752V7.51924C7.79422 7.49287 7.79605 7.46556 7.80483 7.44015C7.8136 7.41473 7.829 7.39214 7.84941 7.37472C7.86982 7.3573 7.89451 7.34568 7.92091 7.34108C7.94731 7.33649 7.97445 7.33907 7.99952 7.34857H8.46952C8.49017 7.34976 8.51034 7.35523 8.52879 7.36463C8.54723 7.37402 8.56353 7.38715 8.57668 7.40318C8.58983 7.41921 8.59953 7.43779 8.60518 7.45776C8.61084 7.47774 8.61231 7.49867 8.60952 7.51924Z" fill="#605B5B"/>
</svg>
