<svg width="13" height="5" viewBox="0 0 13 5" fill="none" xmlns="http://www.w3.org/2000/svg">
<path d="M8.736 0.203626V4.08025C8.736 4.21228 8.736 4.26028 8.544 4.26028H7.932C7.90389 4.2613 7.87597 4.25524 7.85081 4.24265C7.82565 4.23007 7.80405 4.21137 7.788 4.18827L6.888 2.98808L6.048 1.84789V1.76388V4.09226C6.048 4.26028 6.048 4.29629 5.844 4.29629H5.292C5.2525 4.30253 5.21207 4.29448 5.17798 4.27358C5.14388 4.25268 5.11836 4.22031 5.106 4.18227C5.09789 4.1571 5.09583 4.13037 5.1 4.10426V0.22763C5.09821 0.20353 5.10163 0.179325 5.11005 0.15667C5.11846 0.134014 5.13166 0.113441 5.14874 0.096352C5.16583 0.0792632 5.1864 0.066062 5.20905 0.0576487C5.2317 0.0492354 5.2559 0.0458086 5.28 0.0476015H5.94C5.96211 0.0511468 5.98321 0.0594134 6.00184 0.0718394C6.02048 0.0842654 6.03622 0.100559 6.048 0.119612L7.368 2.02792L7.716 2.496V2.55601V0.22763C7.716 0.0716049 7.776 0.0115948 7.932 0.0115948H8.472C8.664 0.0115948 8.736 0.0716043 8.736 0.203626ZM10.344 1.06777V1.57185C10.344 1.66786 10.344 1.66786 10.428 1.66786H12.048C12.204 1.66786 12.252 1.72787 12.252 1.8839V2.43599C12.2561 2.46214 12.254 2.48889 12.2458 2.51407C12.2376 2.53924 12.2235 2.56211 12.2048 2.58083C12.1861 2.59955 12.1632 2.61358 12.1381 2.62178C12.1129 2.62998 12.0861 2.63212 12.06 2.62802H10.428C10.344 2.62802 10.344 2.62802 10.344 2.72403V3.22812C10.344 3.32413 10.344 3.32413 10.428 3.32413H12.048C12.192 3.32413 12.24 3.32413 12.24 3.52816V4.08025C12.24 4.22428 12.24 4.27228 12.048 4.27228H9.588C9.372 4.27228 9.384 4.27228 9.384 4.08025V0.22763C9.384 0.0836068 9.444 0.023597 9.588 0.023597H11.988C12.132 0.023597 12.18 0.0836068 12.18 0.22763V0.827727C12.18 0.959749 12.18 1.01976 12 1.01976H10.428C10.344 0.983752 10.344 0.983752 10.344 1.06777ZM2.844 3.49216V4.11626C2.844 4.22428 2.784 4.27228 2.676 4.27228H0.192C0.0479998 4.27228 0 4.27228 0 4.08025V0.22763C0 0.0716049 8.9407e-08 0.023597 0.204 0.023597H0.756C0.9 0.023597 0.948 0.0836065 0.948 0.215628V3.28813H2.712C2.74691 3.2919 2.77952 3.30734 2.80456 3.33196C2.8296 3.35657 2.84561 3.38891 2.85 3.42375C2.8547 3.44665 2.85262 3.47043 2.844 3.49216ZM4.38 0.215628V4.08025C4.38 4.22428 4.38 4.27228 4.176 4.27228C3.984 4.28429 3.792 4.28429 3.6 4.27228C3.57385 4.27639 3.5471 4.27425 3.52193 4.26605C3.49677 4.25785 3.47389 4.24382 3.45518 4.2251C3.43646 4.20638 3.42243 4.1835 3.41423 4.15833C3.40604 4.13316 3.4039 4.10641 3.408 4.08025V0.215628C3.40164 0.184107 3.40384 0.151458 3.41437 0.121075C3.4249 0.0906922 3.44337 0.0636841 3.46787 0.0428583C3.49237 0.0220324 3.52199 0.00814877 3.55367 0.00265094C3.58535 -0.00284689 3.61792 0.000241163 3.648 0.0115948H4.212C4.23678 0.0130224 4.26099 0.0195593 4.28312 0.0307942C4.30525 0.0420292 4.32482 0.0577196 4.34059 0.0768802C4.35637 0.0960408 4.36802 0.118258 4.3748 0.142135C4.38158 0.166012 4.38335 0.191033 4.38 0.215628Z" fill="#605B5B"/>
</svg>
