<svg width="24" height="24" viewBox="0 0 24 24" fill="none" xmlns="http://www.w3.org/2000/svg">
<path d="M19.2 0H4.8C3.52696 0 2.30606 0.505713 1.40589 1.40589C0.505713 2.30606 0 3.52696 0 4.8V19.2C0 20.473 0.505713 21.6939 1.40589 22.5941C2.30606 23.4943 3.52696 24 4.8 24H19.2C20.473 24 21.6939 23.4943 22.5941 22.5941C23.4943 21.6939 24 20.473 24 19.2V4.8C24 3.52696 23.4943 2.30606 22.5941 1.40589C21.6939 0.505713 20.473 0 19.2 0ZM20.52 13.2C20.215 13.8873 19.8107 14.5262 19.32 15.096C18.5352 15.9861 17.6583 16.7906 16.704 17.496C15.5992 18.364 14.4472 19.164 13.248 19.896C12.876 20.124 12.492 20.328 12.108 20.52C11.9405 20.6187 11.7504 20.6724 11.556 20.676C11.5127 20.6841 11.4682 20.6818 11.426 20.6692C11.3838 20.6566 11.3452 20.6341 11.3135 20.6036C11.2818 20.573 11.2579 20.5354 11.2437 20.4937C11.2295 20.452 11.2255 20.4075 11.232 20.364C11.2208 20.2002 11.2208 20.0358 11.232 19.872C11.3116 19.501 11.3558 19.1233 11.364 18.744C11.3672 18.6309 11.337 18.5195 11.2773 18.4234C11.2175 18.3274 11.1308 18.2511 11.028 18.204C10.8279 18.1057 10.6131 18.0408 10.392 18.012C9.23724 17.8454 8.11808 17.4885 7.08 16.956C6.10192 16.4562 5.23306 15.7668 4.524 14.928C3.79859 14.0823 3.29907 13.0668 3.072 11.976C3.072 11.724 3 11.472 2.976 11.208C2.952 10.944 2.976 10.716 2.976 10.464C3.01203 9.80052 3.15802 9.14764 3.408 8.532C3.73342 7.71005 4.20503 6.95384 4.8 6.3C5.6513 5.4091 6.67647 4.70251 7.812 4.224C8.52761 3.93737 9.27185 3.72817 10.032 3.6L10.944 3.48H12.972C14.347 3.59308 15.6854 3.98072 16.908 4.62C17.76 5.058 18.5352 5.6328 19.2 6.324C19.8975 7.05233 20.4189 7.93081 20.724 8.892C20.856 9.2796 20.9412 9.684 20.976 10.092V10.872C20.9908 11.6716 20.8353 12.4651 20.52 13.2Z" fill="#605B5B"/>
</svg>
